<svg xmlns="http://www.w3.org/2000/svg" width="256" height="256" viewBox="0 0 256 256">
    <rect x="0" y="0" width="256" height="256" rx="32" fill="#333"/>
    <defs>
        <linearGradient id="red1" x1="0%" y1="0%" x2="100%" y2="100%">
            <stop offset="0%" stop-color="#F33"/>
            <stop offset="100%" stop-color="#211"/>
        </linearGradient>
        <linearGradient id="red2" x1="100%" y1="0%" x2="0%" y2="100%">
            <stop offset="0%" stop-color="#822"/>
            <stop offset="100%" stop-color="#211"/>
        </linearGradient>
        <linearGradient id="purple1" x1="100%" y1="0%" x2="0%" y2="100%">
            <stop offset="0%" stop-color="#529"/>
            <stop offset="100%" stop-color="#212"/>
        </linearGradient>
        <linearGradient id="purple2" x1="0%" y1="0%" x2="100%" y2="100%">
            <stop offset="0%" stop-color="#92F"/>
            <stop offset="100%" stop-color="#212"/>
        </linearGradient>
        <linearGradient id="blue1" x1="0%" y1="0%" x2="100%" y2="100%">
            <stop offset="0%" stop-color="#47F"/>
            <stop offset="100%" stop-color="#112"/>
        </linearGradient>
    </defs>
    <path d="M 20 128 L 45 128 L 105 208 L 80 208 Z" fill="url(#red2)"/>
    <path d="M 80 48 L 105 48 L 35 147 L 20 128 Z" fill="url(#red1)"/>
    <path d="M 176 48 L 151 48 L 211 128 L 236 128 Z" fill="url(#purple1)"/>
    <path d="M 221 109 L 236 128 L 176 208 L 151 208 Z" fill="url(#purple2)"/>
    <path d="M 85 168 L 110 168 L 170 88 L 145 88 Z" fill="url(#blue1)"/>
</svg>
